<?xml version="1.0" encoding="UTF-8" standalone="no"?>
<!DOCTYPE svg PUBLIC "-//W3C//DTD SVG 1.1//EN" "http://www.w3.org/Graphics/SVG/1.1/DTD/svg11.dtd">
<svg version="1.1" xmlns="http://www.w3.org/2000/svg" xmlns:xlink="http://www.w3.org/1999/xlink" preserveAspectRatio="xMidYMid meet" viewBox="83.95327102803745 58.25233644859832 314.1557708991646 221.15955983493797" width="350" height="245.06"><defs><path d="" id="ewPnIYvU3"></path><path d="M385.81 81.09C390.95 81.09 395.11 85.25 395.11 90.39C395.11 127.59 395.11 229.91 395.11 267.11C395.11 272.25 390.95 276.41 385.81 276.41C333.3 276.41 185.06 276.41 132.55 276.41C127.42 276.41 123.25 272.25 123.25 267.11C123.25 229.91 123.25 127.59 123.25 90.39C123.25 85.25 127.42 81.09 132.55 81.09C185.06 81.09 333.3 81.09 385.81 81.09Z" id="a5DodlAhuH"></path><path d="M378.74 91.29C382.19 91.29 384.99 94.09 384.99 97.54C384.99 120.03 384.99 176.25 384.99 266.21L133.38 266.21C133.38 176.72 133.38 120.8 133.38 98.43C133.38 94.49 136.57 91.29 140.51 91.29C189.41 91.29 329.67 91.29 378.74 91.29Z" id="d1ejSruU9B"></path><path d="M161.27 134.45L188 134.45L188 136.62L161.27 136.62L161.27 134.45Z" id="be4ARxbDa"></path><path d="M161.64 124.43L157.14 119.43L160.39 119.43L165.39 124.43L161.64 124.43Z" id="k2zPY6kE0Y"></path><path d="M161.64 114.43L157.14 119.43L160.39 119.43L165.39 114.43L161.64 114.43Z" id="bHhIkx2kN"></path><path d="M170.18 143.36L196.91 143.36L196.91 145.53L170.18 145.53L170.18 143.36Z" id="a2bYySlEzm"></path><path d="M179.09 153.16L205.82 153.16L205.82 155.33L179.09 155.33L179.09 153.16Z" id="b1qOsz9UM"></path><path d="M179.92 162.08L206.55 162.08L206.55 164.24L179.92 164.24L179.92 162.08Z" id="a4stcmhqHT"></path><path d="M179.92 170.99L206.55 170.99L206.55 173.15L179.92 173.15L179.92 170.99Z" id="f2x7vbtXZd"></path><path d="M188 179.9L278.81 179.9L278.81 182.06L188 182.06L188 179.9Z" id="e2sMgseSLK"></path><path d="M188 190.53L278.81 190.53L278.81 188.37L188 188.37L188 190.53Z" id="a29iKDPd3D"></path><path d="M188.83 197.72L279.64 197.72L279.64 199.89L188.83 199.89L188.83 197.72Z" id="a1mx0sik53"></path><path d="M179.92 206.63L206.55 206.63L206.55 208.8L179.92 208.8L179.92 206.63Z" id="b1bx4oCftp"></path><path d="M179.09 215.54L205.72 215.54L205.72 217.71L179.09 217.71L179.09 215.54Z" id="cKMbw00Ig"></path><path d="M162.21 224.46L188.83 224.46L188.83 226.62L162.21 226.62L162.21 224.46Z" id="bqnBxZhcE"></path><path d="M165.02 243.07L169.52 238.07L166.27 238.07L161.27 243.07L165.02 243.07Z" id="h4xJjC3Pe"></path><path d="M165.02 233.07L169.52 238.07L166.27 238.07L161.27 233.07L165.02 233.07Z" id="c3rhzCxrPl"></path><path d="M143.77 97.17C143.77 98.55 142.65 99.67 141.27 99.67C139.89 99.67 138.77 98.55 138.77 97.17C138.77 95.79 139.89 94.67 141.27 94.67C142.65 94.67 143.77 95.79 143.77 97.17Z" id="c3hp1imx4R"></path><path d="M152.95 97.17C152.95 98.55 151.83 99.67 150.45 99.67C149.07 99.67 147.95 98.55 147.95 97.17C147.95 95.79 149.07 94.67 150.45 94.67C151.83 94.67 152.95 95.79 152.95 97.17Z" id="b3xek22HTR"></path><path d="M162.14 97.17C162.14 98.55 161.02 99.67 159.64 99.67C158.26 99.67 157.14 98.55 157.14 97.17C157.14 95.79 158.26 94.67 159.64 94.67C161.02 94.67 162.14 95.79 162.14 97.17Z" id="evepoDVEO"></path><path d="" id="c3dwslFUwP"></path></defs><g><g><g><use xlink:href="#ewPnIYvU3" opacity="1" fill-opacity="0" stroke="#000000" stroke-width="1" stroke-opacity="1"></use></g></g><g><use xlink:href="#a5DodlAhuH" opacity="1" fill="#000000" fill-opacity="1"></use><g><use xlink:href="#a5DodlAhuH" opacity="1" fill-opacity="0" stroke="#686868" stroke-width="5" stroke-opacity="1"></use></g></g><g><use xlink:href="#d1ejSruU9B" opacity="1" fill="#16237a" fill-opacity="1"></use></g><g><g><use xlink:href="#be4ARxbDa" opacity="1" fill="#8dea7e" fill-opacity="1"></use></g><g><g><use xlink:href="#k2zPY6kE0Y" opacity="1" fill="#ffffff" fill-opacity="1"></use></g><g><use xlink:href="#bHhIkx2kN" opacity="1" fill="#ffffff" fill-opacity="1"></use></g></g><g><use xlink:href="#a2bYySlEzm" opacity="1" fill="#eadc7e" fill-opacity="1"></use></g><g><use xlink:href="#b1qOsz9UM" opacity="1" fill="#eadc7e" fill-opacity="1"></use></g><g><use xlink:href="#a4stcmhqHT" opacity="1" fill="#eadc7e" fill-opacity="1"></use></g><g><use xlink:href="#f2x7vbtXZd" opacity="1" fill="#eadc7e" fill-opacity="1"></use></g><g><use xlink:href="#e2sMgseSLK" opacity="1" fill="#e6e6e6" fill-opacity="1"></use></g><g><use xlink:href="#a29iKDPd3D" opacity="1" fill="#e6e6e6" fill-opacity="1"></use></g><g><use xlink:href="#a1mx0sik53" opacity="1" fill="#e6e6e6" fill-opacity="1"></use></g><g><use xlink:href="#b1bx4oCftp" opacity="1" fill="#eadc7e" fill-opacity="1"></use></g><g><use xlink:href="#cKMbw00Ig" opacity="1" fill="#eadc7e" fill-opacity="1"></use></g><g><use xlink:href="#bqnBxZhcE" opacity="1" fill="#95ea7e" fill-opacity="1"></use></g><g><g><use xlink:href="#h4xJjC3Pe" opacity="1" fill="#ffffff" fill-opacity="1"></use></g><g><use xlink:href="#c3rhzCxrPl" opacity="1" fill="#ffffff" fill-opacity="1"></use></g></g></g><g><use xlink:href="#c3hp1imx4R" opacity="1" fill="#e60600" fill-opacity="1"></use></g><g><use xlink:href="#b3xek22HTR" opacity="1" fill="#fede04" fill-opacity="1"></use></g><g><use xlink:href="#evepoDVEO" opacity="1" fill="#75ff00" fill-opacity="1"></use></g><g><g><use xlink:href="#c3dwslFUwP" opacity="1" fill-opacity="0" stroke="#666565" stroke-width="4" stroke-opacity="1"></use></g></g></g></svg>