<svg data-name="Layer 1" viewBox="0 0 1920 1080" xmlns="http://www.w3.org/2000/svg"><defs><linearGradient id="prefix__b" x1="322.58" x2="1597.4" y1="868.83" y2="868.83" gradientUnits="userSpaceOnUse"><stop stop-color="#606162" offset="0"/><stop stop-color="#b7babb" offset=".12"/><stop stop-color="#a2a5a6" offset=".36"/><stop stop-color="#c9cccd" offset=".51"/><stop stop-color="#848687" offset=".73"/><stop stop-color="#9c9fa0" offset=".88"/><stop stop-color="#4c4d4e" offset="1"/></linearGradient><linearGradient id="prefix__a" x1="953.71" x2="953.71" y1="849.07" y2="867.51" gradientUnits="userSpaceOnUse"><stop stop-color="#9c9fa0" offset="0"/><stop stop-color="#a2a5a6" offset=".24"/><stop stop-color="#4c4d4e" offset="1"/></linearGradient><style>.prefix__cls-4{fill:#86328c}.prefix__cls-7{fill:#0083ca}.prefix__cls-8{fill:#999}.prefix__cls-15{fill:#1d1e21}.prefix__cls-16{fill:#0d0f12}.prefix__cls-17{fill:#1c1e20}</style></defs><path d="M484.93 170.48H1442a35.18 35.18 0 0135.18 35.18v640.53H449.78V205.66a35.18 35.18 0 0135.18-35.18z" fill="#040404"/><rect x="501.91" y="232.67" width="927.25" height="556.31" rx="2.21" ry="2.21" fill="#fff"/><ellipse cx="965.04" cy="204.96" rx="5.88" ry="3.49" fill="#4d4d4d"/><image transform="translate(925 166)" width="78" height="76"/><path class="prefix__cls-4" d="M500.58 259.87h927.25v37.62H500.58zM581.29 314.55h754.58v195.09H581.29z"/><path fill="#f7f7f7" d="M719.18 398.26h478.81v39.76H719.18z"/><path fill="#ec008c" d="M1096 398.26h101.98v40.23H1096z"/><path class="prefix__cls-7" d="M841.51 531.39h232.74v102.64H841.51zM1103.1 529.01h232.74v102.64H1103.1zM581.29 531.39h232.74v102.64H581.29z"/><path class="prefix__cls-8" d="M842.22 650.58h232.74v6.84H842.22zM842.22 670.2h232.74v6.84H842.22zM842.22 689.83h232.74v6.84H842.22zM842.22 709.46h232.74v6.84H842.22z"/><path fill="#ed1164" d="M581.29 732.35h754.58v56.38H581.29z"/><path class="prefix__cls-8" d="M581.29 649.81h232.74v6.84H581.29zM581.29 669.44h232.74v6.84H581.29zM581.29 689.06h232.74v6.84H581.29zM581.29 708.69h232.74v6.84H581.29zM1103.1 650.58h232.74v6.84H1103.1zM1103.1 670.2h232.74v6.84H1103.1zM1103.1 689.83h232.74v6.84H1103.1zM1103.1 709.46h232.74v6.84H1103.1zM1106.4 275.09h112.65v9.35H1106.4z"/><path fill="#afafaf" d="M965.05 275.09h112.65v9.35H965.05z"/><path class="prefix__cls-8" d="M688.35 275.09H801v9.35H688.35zM823.68 275.09h112.65v9.35H823.68z"/><path d="M1588.8 879.4c0 10.34-40.82 25.36-48.43 25.36H384.97c-7.61 0-48.43-15-48.43-25.36z" fill="#919296"/><path d="M322.58 846h1274.8v22.8a22.88 22.88 0 01-22.88 22.88H344.9a22.32 22.32 0 01-22.32-22.32V846z" fill="url(#prefix__b)"/><path d="M1558.2 898.58c0 4.46-38.87 10.94-46.12 10.94H411.88c-7.25 0-46.12-6.48-46.12-10.94z" fill="#464142"/><path d="M1042.4 849.07c0 9.22-7.87 18.44-18.28 18.44H881.68c-10.29 0-16.64-9.22-16.64-18.44z" fill="url(#prefix__a)"/><path class="prefix__cls-15" d="M777.66 906.22c3.47-2.68 13.2-2.62 15.67.1-5.23 1.3-10.45 1.6-15.67-.1zM1123.2 906.92c3.47-2.68 13.2-2.62 15.67.1-5.23 1.3-10.45 1.61-15.67-.1zM411.53 905.69c3.47-2.68 13.2-2.62 15.67.1-5.2 1.3-10.46 1.6-15.67-.1zM1484 906.58c3.47-2.68 13.2-2.62 15.67.1-5.24 1.32-10.46 1.6-15.67-.1z"/><path class="prefix__cls-16" d="M1472.2 871.79a9.64 9.64 0 01-2.57.76h-37.42a3.36 3.36 0 01-2.55-.83c14.17-.34 28.39-.43 42.54.07z"/><path class="prefix__cls-17" d="M1428.91 874.54c-1.63-2-3.07-4 .69-5.26 9.45.84 18.92.25 28.38.34 4.72 0 9.46.43 14.17-.3 3.74 1.83 2 3.6-.07 5.36-2.52 1.08-5.16.47-7.74.49-10.34.08-20.68.06-31 0-1.49-.01-3.11.62-4.43-.63z"/><path d="M1428.91 874.54l43.17.14a6.06 6.06 0 01-.08.77q-21.41.11-42.82.15c-.11 0-.32-.14-.32-.22a5.23 5.23 0 01.05-.84z" fill="#dcdde0"/><path class="prefix__cls-16" d="M1472.2 869.32a9.64 9.64 0 01-2.57.76h-37.42a3.36 3.36 0 01-2.55-.83c14.17-.34 28.39-.43 42.54.07z"/><path class="prefix__cls-16" d="M1472.2 869.32a9.64 9.64 0 01-2.57.76h-37.42a3.36 3.36 0 01-2.55-.83c14.17-.34 28.39-.43 42.54.07z"/><path class="prefix__cls-17" d="M1428.91 874.54c-1.63-2-3.07-4 .69-5.26 9.45.84 18.92.25 28.38.34 4.72 0 9.46.43 14.17-.3 3.74 1.83 2 3.6-.07 5.36-2.52 1.08-5.16.47-7.74.49-10.34.08-20.68.06-31 0-1.49-.01-3.11.62-4.43-.63z"/><path d="M1428.91 874.54l43.17.14a6.06 6.06 0 01-.08.77q-21.41.11-42.82.15c-.11 0-.32-.14-.32-.22a5.23 5.23 0 01.05-.84z" fill="#cecece"/><path class="prefix__cls-16" d="M1472.2 869.32a9.64 9.64 0 01-2.57.76h-37.42a3.36 3.36 0 01-2.55-.83c14.17-.34 28.39-.43 42.54.07z"/></svg>