<?xml version="1.0"?>
<svg xmlns="http://www.w3.org/2000/svg" viewBox="0 0 64 64" width="512" height="512"><g id="Outline"><path d="M50,42.586l-1,1-1.834-1.834a25.036,25.036,0,1,0-5.414,5.414L43.586,49l-1,1L53.05,60.464a5.242,5.242,0,1,0,7.414-7.414ZM4,27A23,23,0,1,1,27,50,23.026,23.026,0,0,1,4,27ZM43.324,45.91a25.053,25.053,0,0,0,2.586-2.586L47.586,45,45,47.586ZM56.757,60a3.221,3.221,0,0,1-2.293-.95L45.414,50,50,45.414l9.05,9.05A3.243,3.243,0,0,1,56.757,60Z"/><path d="M27,6A21,21,0,1,0,48,27,21.023,21.023,0,0,0,27,6Zm0,40A19,19,0,1,1,46,27,19.021,19.021,0,0,1,27,46Z"/><path d="M40,31V18a3,3,0,0,0-3-3H17a3,3,0,0,0-3,3V31H12v3a3,3,0,0,0,3,3H39a3,3,0,0,0,3-3V31ZM16,18a1,1,0,0,1,1-1H37a1,1,0,0,1,1,1V31H16ZM40,34a1,1,0,0,1-1,1H15a1,1,0,0,1-1-1V33H40Z"/><polygon points="30 21 32.586 21 28 25.586 24 21.586 18.293 27.293 19.707 28.707 24 24.414 28 28.414 34 22.414 34 25 36 25 36 19 30 19 30 21"/></g></svg>
