<?xml version="1.0"?>
<svg xmlns="http://www.w3.org/2000/svg" id="Outline" viewBox="0 0 64 64" width="512" height="512"><path d="M9,35V47a5.006,5.006,0,0,0,5,5v7a3,3,0,0,0,3,3H47a3,3,0,0,0,3-3V52a5.006,5.006,0,0,0,5-5V35a5.006,5.006,0,0,0-5-5V28a5.006,5.006,0,0,0,5-5V11a5.006,5.006,0,0,0-5-5V5a3,3,0,0,0-3-3H17a3,3,0,0,0-3,3V6a5.006,5.006,0,0,0-5,5V23a5.006,5.006,0,0,0,5,5v2A5.006,5.006,0,0,0,9,35Zm2,12V35a3,3,0,0,1,3-3H26a3,3,0,0,1,3,3V47a3,3,0,0,1-3,3H14A3,3,0,0,1,11,47Zm5,12V56H29.78a2.954,2.954,0,0,0,0,4H17A1,1,0,0,1,16,59Zm16,0a1,1,0,1,1,1-1A1,1,0,0,1,32,59Zm15,1H34.22a2.954,2.954,0,0,0,0-4H48v3A1,1,0,0,1,47,60Zm6-25V47a3,3,0,0,1-3,3H38a3,3,0,0,1-3-3V35a3,3,0,0,1,3-3H50A3,3,0,0,1,53,35Zm0-24V23a3,3,0,0,1-3,3H38a3,3,0,0,1-3-3V11a3,3,0,0,1,3-3H50A3,3,0,0,1,53,11ZM11,23V11a3,3,0,0,1,3-3H26a3,3,0,0,1,3,3V23a3,3,0,0,1-3,3H14A3,3,0,0,1,11,23Zm5,5H26a5.006,5.006,0,0,0,5-5V11a5.006,5.006,0,0,0-5-5H16V5a1,1,0,0,1,1-1H47a1,1,0,0,1,1,1V6H38a5.006,5.006,0,0,0-5,5V23a5.006,5.006,0,0,0,5,5H48v2H38a5.006,5.006,0,0,0-5,5V47a5.006,5.006,0,0,0,5,5H48v2H16V52H26a5.006,5.006,0,0,0,5-5V35a5.006,5.006,0,0,0-5-5H16Z"/><path d="M19,45a3,3,0,1,0-3,3A3,3,0,0,0,19,45Zm-4,0a1,1,0,1,1,1,1A1,1,0,0,1,15,45Z"/><path d="M16,40a5.006,5.006,0,0,1,5,5,1,1,0,0,0,2,0,7.008,7.008,0,0,0-7-7,1,1,0,0,0,0,2Z"/><path d="M16,36a9.01,9.01,0,0,1,9,9,1,1,0,0,0,2,0A11.013,11.013,0,0,0,16,34a1,1,0,0,0,0,2Z"/><path d="M44,34a7,7,0,1,0,7,7A7.008,7.008,0,0,0,44,34Zm4.9,6H47.12a10.336,10.336,0,0,0-.981-3.5A5.008,5.008,0,0,1,48.9,40Zm-6.005,0A8.346,8.346,0,0,1,44,36.737,8.346,8.346,0,0,1,45.106,40Zm2.212,2A8.346,8.346,0,0,1,44,45.263,8.346,8.346,0,0,1,42.894,42Zm-3.245-5.5A10.336,10.336,0,0,0,40.88,40H39.1A5.008,5.008,0,0,1,41.861,36.5ZM39.1,42H40.88a10.336,10.336,0,0,0,.981,3.5A5.008,5.008,0,0,1,39.1,42Zm7.038,3.5A10.336,10.336,0,0,0,47.12,42H48.9A5.008,5.008,0,0,1,46.139,45.5Z"/><path d="M44,10a7.008,7.008,0,0,0-7,7,6.929,6.929,0,0,0,1.046,3.672L37.1,22.553A1,1,0,0,0,38,24a.932.932,0,0,0,.2-.02l2.954-.59A6.906,6.906,0,0,0,44,24a7,7,0,0,0,0-14Zm0,12a4.932,4.932,0,0,1-2.264-.547,1.006,1.006,0,0,0-.455-.109,1.084,1.084,0,0,0-.2.019l-1.276.255.289-.577A1,1,0,0,0,40,19.994,5,5,0,1,1,44,22Z"/><path d="M44.38,16.08a1,1,0,0,0-1.09.21A1.05,1.05,0,0,0,43,17a.99.99,0,0,0,.29.71,1.155,1.155,0,0,0,.33.21.942.942,0,0,0,.76,0,1.155,1.155,0,0,0,.33-.21A.99.99,0,0,0,45,17a1.05,1.05,0,0,0-.29-.71A.933.933,0,0,0,44.38,16.08Z"/><path d="M16.5,20A3.283,3.283,0,0,0,20,17V12.326l5,1.428V18.3a3.943,3.943,0,0,0-1.5-.3A3.283,3.283,0,0,0,20,21a3.283,3.283,0,0,0,3.5,3A3.283,3.283,0,0,0,27,21V13a1,1,0,0,0-.725-.962l-7-2A1,1,0,0,0,18,11v3.3a3.943,3.943,0,0,0-1.5-.3A3.283,3.283,0,0,0,13,17,3.283,3.283,0,0,0,16.5,20Zm7,2c-.8,0-1.5-.468-1.5-1s.7-1,1.5-1,1.5.468,1.5,1S24.3,22,23.5,22Zm-7-6c.8,0,1.5.468,1.5,1s-.7,1-1.5,1S15,17.532,15,17,15.7,16,16.5,16Z"/><path d="M40.29,16.29A1.05,1.05,0,0,0,40,17a1,1,0,0,0,1.71.71A1.007,1.007,0,0,0,42,17a1,1,0,0,0-1.71-.71Z"/><path d="M46.62,16.08a1.155,1.155,0,0,0-.33.21A1.05,1.05,0,0,0,46,17a.99.99,0,0,0,.29.71,1.155,1.155,0,0,0,.33.21A.99.99,0,0,0,48,17a1.05,1.05,0,0,0-.29-.71A1,1,0,0,0,46.62,16.08Z"/></svg>