<?xml version="1.0"?>
<svg xmlns="http://www.w3.org/2000/svg" viewBox="0 0 64 64" width="512" height="512"><g id="Outline"><path d="M37,12.764V7H35V1H29V7H27v5.764L26.382,14H2V54H26.557l-3,8H40.443l-3-8H62V14H37.618Zm-7.713,5.425L16.619,43.527a3.477,3.477,0,0,1-.724-4.08l11.63-23.261A5.019,5.019,0,0,0,29.287,18.189Zm1.873.726a4.188,4.188,0,0,0,1.679,0L36.382,26H27.618Zm3.552-.726a5.014,5.014,0,0,0,1.763-2l11.63,23.261a3.477,3.477,0,0,1-.724,4.08ZM31,3h2V7H31ZM29,9h6v5a3,3,0,0,1-6,0Zm8.557,51H26.443l2.25-6h6.614ZM60,52H4V50H60Zm0-36V48H4V16H25.382L14.105,38.553A5.475,5.475,0,0,0,16.553,45.9l.894.447L26.618,28H37.382l9.171,18.342.894-.447A5.475,5.475,0,0,0,49.9,38.553L38.618,16Z"/><path d="M32,14a.99.99,0,1,0-.71-.29A1.052,1.052,0,0,0,32,14Z"/></g></svg>
