<?xml version="1.0"?>
<svg xmlns="http://www.w3.org/2000/svg" viewBox="0 0 64 64" width="512" height="512"><g id="Outline"><path d="M62,12a5.006,5.006,0,0,0-5-5,4.608,4.608,0,0,0-.783.067A5.989,5.989,0,0,0,45.065,9.11a4,4,0,0,0-1.227.536,12.988,12.988,0,0,0-19.567-5.1A8.989,8.989,0,0,0,9.514,8.02C9.343,8.007,9.171,8,9,8A7,7,0,0,0,9,22h2.059A9.01,9.01,0,0,0,20,30H31v9.849a9.67,9.67,0,0,0-1-.383V36H24v3.466a9.858,9.858,0,0,0-1.619.673l-2.452-2.452-4.242,4.242,2.452,2.452A9.786,9.786,0,0,0,17.466,46H14v2H2v2H14v2h3.466a9.786,9.786,0,0,0,.673,1.619l-2.452,2.452,4.242,4.242,2.452-2.452A9.786,9.786,0,0,0,24,58.534V62h6V58.534a9.786,9.786,0,0,0,1.619-.673l2.452,2.452,3.362-3.362a6.648,6.648,0,0,0,.639.368V60h6V57.319a6.952,6.952,0,0,0,.973-.56l2.321,1.34,3-5.2-2.318-1.338c.016-.189.024-.376.024-.563s-.008-.374-.024-.563L48.8,50H62V48H49.732l-2.366-4.1-2.321,1.34a6.952,6.952,0,0,0-.973-.56V42h-5.83l.071-.071-4.242-4.242L33,38.758V30H47a7.991,7.991,0,0,0,6.235-13H57A5.006,5.006,0,0,0,62,12ZM40.072,46.056V44h2v2.056l.666.235a4.968,4.968,0,0,1,1.578.91l.538.46,1.78-1.027,1,1.732-1.778,1.026.128.694a4.791,4.791,0,0,1,0,1.828l-.128.694,1.778,1.026-1,1.732-1.78-1.027-.538.46a4.968,4.968,0,0,1-1.578.91l-.666.235V58h-2V55.944l-.666-.235a5,5,0,0,1-1.579-.91l-.538-.46L35.51,55.366l-1-1.732,1.777-1.026-.128-.694a4.845,4.845,0,0,1,0-1.828l.128-.694L34.51,48.366l1-1.732,1.779,1.027.538-.46a5,5,0,0,1,1.579-.91Zm-2-3.886v2.511a6.8,6.8,0,0,0-.973.56l-1.139-.657c-.033-.068-.064-.136-.1-.2Zm-2.587-.241-2.142,2.142.424.676c.095.151.167.312.252.469l-2.044,3.54a4.982,4.982,0,1,0,0,.459L34.1,50.437c-.017.19-.025.378-.025.563s.008.373.025.563L31.777,52.9l2.517,4.361-.223.223-2.143-2.143-.676.426A7.964,7.964,0,0,1,28.778,56.8L28,56.972V60H26V56.972l-.778-.177a7.964,7.964,0,0,1-2.474-1.027l-.676-.426-2.143,2.143-1.414-1.414,2.143-2.143-.426-.676A7.964,7.964,0,0,1,19.2,50.778L19.028,50H16V48h3.028l.177-.778a7.964,7.964,0,0,1,1.027-2.474l.426-.676-2.143-2.143,1.414-1.414,2.143,2.143.675-.425a7.988,7.988,0,0,1,2.475-1.028L26,41.028V38h2v3.028l.778.177a7.988,7.988,0,0,1,2.475,1.028l.675.425,2.143-2.143ZM30,49a3,3,0,1,1-3-3A3,3,0,0,1,30,49ZM46,11h1V10a3.99,3.99,0,0,1,7.73-1.4l.346.919L56,9.188A2.956,2.956,0,0,1,57,9a3,3,0,0,1,0,6H50.864a7.952,7.952,0,0,0-5.885-.738,12.835,12.835,0,0,0-.426-2.624A1.994,1.994,0,0,1,46,11ZM4,15a5.006,5.006,0,0,1,5-5,5.108,5.108,0,0,1,1.027.106l.949.2L11.2,9.36A6.982,6.982,0,0,1,22.75,5.871a12.934,12.934,0,0,0-3.394,6.151A9.015,9.015,0,0,0,11.06,20H9A5.006,5.006,0,0,1,4,15ZM47,28H20a7,7,0,1,1,.021-14h0l1,.02.142-.848A10.993,10.993,0,0,1,43,15c0,.15-.011.3-.021.446l-.113,1.894L44.4,16.6A6,6,0,1,1,47,28Z"/><path d="M41.072,54a3,3,0,1,0-3-3A3,3,0,0,0,41.072,54Zm0-4a1,1,0,1,1-1,1A1,1,0,0,1,41.072,50Z"/></g></svg>
