<?xml version="1.0"?>
<svg xmlns="http://www.w3.org/2000/svg" viewBox="0 0 64 64" width="512" height="512"><g id="Outline"><path d="M36,55H34V50H28V47h4V31H17V24h2v5H45V2H19V22H15V33H30V45H28V35H2V62H28V52h4v5h4v5H62V35H36ZM21,4H43V7H21ZM43,9V27H21V9ZM4,37H26v3H4ZM26,60H4V42H26Zm34,0H38V42H60ZM38,37H60v3H38Z"/><rect x="24" y="22" width="16" height="2"/><rect x="41" y="55" width="16" height="2"/><rect x="41" y="50" width="16" height="2"/><rect x="41" y="45" width="16" height="2"/><rect x="24" y="17" width="16" height="2"/><rect x="24" y="12" width="16" height="2"/><rect x="7" y="55" width="16" height="2"/><rect x="7" y="50" width="16" height="2"/><rect x="7" y="45" width="16" height="2"/></g></svg>
