<?xml version="1.0"?>
<svg xmlns="http://www.w3.org/2000/svg" viewBox="0 0 64 64" width="512" height="512"><g id="Outline"><path d="M35.05,20.636,32,17.586l-3.05,3.05A18.194,18.194,0,0,1,16,26H15v1A32.384,32.384,0,0,0,27.011,52.235L32,56.288l4.989-4.053A32.384,32.384,0,0,0,49,27V26H48A18.194,18.194,0,0,1,35.05,20.636Zm.678,30.047L32,53.712l-3.728-3.029A30.379,30.379,0,0,1,17.016,27.976,20.17,20.17,0,0,0,30.364,22.05L32,20.414l1.636,1.636a20.17,20.17,0,0,0,13.348,5.926A30.379,30.379,0,0,1,35.728,50.683Z"/><path d="M30.813,28.138A4.987,4.987,0,0,0,29,36.98V41a3,3,0,0,0,6,0V36.979a4.994,4.994,0,0,0-4.187-8.841Zm3.05,2.511a2.982,2.982,0,0,1-.366,4.932l-.5.289V41a1,1,0,0,1-2,0V35.87l-.5-.289a2.99,2.99,0,0,1,.764-5.5A3.252,3.252,0,0,1,32.006,30,2.954,2.954,0,0,1,33.863,30.649Z"/><path d="M28,2H2V18H28ZM17.121,11.465a3,3,0,0,1-4.242,0L5.414,4H24.586ZM8.586,10,4,14.586V5.414ZM10,11.414l1.465,1.465a5,5,0,0,0,7.07,0L20,11.414,24.586,16H5.414ZM21.414,10,26,5.414v9.172Z"/><path d="M54,47a5,5,0,1,0-5-5A5.006,5.006,0,0,0,54,47Zm0-8a3,3,0,1,1-3,3A3,3,0,0,1,54,39Z"/><path d="M55,48H53a7.009,7.009,0,0,0-7,7v7H62V55A7.009,7.009,0,0,0,55,48Zm5,12H48V55a5.006,5.006,0,0,1,5-5h2a5.006,5.006,0,0,1,5,5Z"/><path d="M55,7.184V6H53V7H52V6H50V7H48V9h1v2H48v2h1v2H48v2h2v1h2V17h1v1h2V16.816A2.972,2.972,0,0,0,56.22,12,2.972,2.972,0,0,0,55,7.184ZM51,9h3a1,1,0,0,1,0,2H51Zm3,6H51V13h3a1,1,0,0,1,0,2Z"/><path d="M52,2A10,10,0,1,0,62,12,10.011,10.011,0,0,0,52,2Zm0,18a8,8,0,1,1,8-8A8.009,8.009,0,0,1,52,20Z"/><path d="M18,46H2V62H18Zm-5,2h3V58.586l-9-9-3,3V48ZM4,55.414l3-3L14.586,60H4Z"/><path d="M10,51a3,3,0,1,0,3-3A3,3,0,0,0,10,51Zm3-1a1,1,0,1,1-1,1A1,1,0,0,1,13,50Z"/></g></svg>
