<?xml version="1.0"?>
<svg xmlns="http://www.w3.org/2000/svg" viewBox="0 0 64 64" width="512" height="512"><g id="Outline"><path d="M2,62H62V2H2Zm58-2H4V10H60ZM4,4H60V8H4Z"/><path d="M6.71,5.29a1.155,1.155,0,0,0-.33-.21.991.991,0,0,0-.76,0,1.155,1.155,0,0,0-.33.21,1.032,1.032,0,0,0-.21.33.942.942,0,0,0,0,.76,1.169,1.169,0,0,0,.21.33,1.155,1.155,0,0,0,.33.21.99.99,0,0,0,1.09-.21,1.169,1.169,0,0,0,.21-.33.943.943,0,0,0,0-.76A1.155,1.155,0,0,0,6.71,5.29Z"/><path d="M9.71,5.29a1.155,1.155,0,0,0-.33-.21.952.952,0,0,0-.76,0,.9.9,0,0,0-.54.54.942.942,0,0,0,0,.76,1.169,1.169,0,0,0,.21.33.99.99,0,0,0,1.09.21,1.155,1.155,0,0,0,.33-.21,1.169,1.169,0,0,0,.21-.33.943.943,0,0,0,0-.76A1.032,1.032,0,0,0,9.71,5.29Z"/><path d="M12.71,5.29a1.032,1.032,0,0,0-.33-.21.991.991,0,0,0-.76,0,1.155,1.155,0,0,0-.33.21,1.032,1.032,0,0,0-.21.33.942.942,0,0,0,0,.76,1.169,1.169,0,0,0,.21.33,1.155,1.155,0,0,0,.33.21.99.99,0,0,0,1.09-.21,1.169,1.169,0,0,0,.21-.33.943.943,0,0,0,0-.76A1.155,1.155,0,0,0,12.71,5.29Z"/><path d="M13,46a7.008,7.008,0,0,0-7,7v4a1,1,0,0,0,1,1H39a1,1,0,0,0,1-1V53a7.2,7.2,0,0,0-.037-.723,17.821,17.821,0,0,0,3.716-1.527L47.728,54.8,54.8,47.728,50.75,43.68A17.8,17.8,0,0,0,52.276,40H58V30H52.276a17.8,17.8,0,0,0-1.526-3.68L54.8,22.272,47.728,15.2,43.679,19.25A17.809,17.809,0,0,0,40,17.724V12H30v2.875a14.008,14.008,0,0,0-3-1.283V13a1,1,0,0,0-1-1H20a1,1,0,0,0-1,1v.591A13.932,13.932,0,0,0,9,27a1,1,0,0,0,1,1h1v2H10a3,3,0,0,0,0,6h1.181A12.019,12.019,0,0,0,18,44.9V46ZM34.819,36H36a3,3,0,0,0,0-6H35V28h1a1,1,0,0,0,1-1,14.135,14.135,0,0,0-.129-1.815A10,10,0,0,1,35,45a9.9,9.9,0,0,1-4.947-1.313A11.994,11.994,0,0,0,34.819,36ZM35,32h1a1,1,0,0,1,0,2H35ZM31,18.047A11.939,11.939,0,0,1,33.91,22H32a1,1,0,0,1-1-1ZM28.133,44.831A11.948,11.948,0,0,0,30.189,46H28V44.9ZM27.414,48H31l-4.108,5.478L24.414,51Zm-.828,8H19.414L23,52.414Zm-7.478-2.522L15,48h3.586l3,3ZM8,53a4.989,4.989,0,0,1,4.536-4.953L18.5,56H8Zm30,3H27.5l5.965-7.953A4.99,4.99,0,0,1,38,53ZM32,14h6v5.28l.765.185a15.9,15.9,0,0,1,4.556,1.889l.672.411,3.735-3.736,4.243,4.243-3.736,3.735.411.672a15.877,15.877,0,0,1,1.889,4.555L50.72,32H56v6H50.72l-.185.766a15.877,15.877,0,0,1-1.889,4.555l-.411.672,3.736,3.735-4.243,4.243-3.735-3.736-.672.411a15.878,15.878,0,0,1-3.851,1.689,7.042,7.042,0,0,0-3.037-3.429A11.988,11.988,0,0,0,36.442,23.1,13.923,13.923,0,0,0,32,16.272ZM21,14h4v8H21ZM20,24h6a1,1,0,0,0,1-1V15.689a12.018,12.018,0,0,1,2,.917V21a3,3,0,0,0,3,3h2.62a12.021,12.021,0,0,1,.339,2H11.041a12.019,12.019,0,0,1,.337-2H14a3,3,0,0,0,3-3V16.6a12.092,12.092,0,0,1,2-.915V23A1,1,0,0,0,20,24Zm-5-5.956V21a1,1,0,0,1-1,1H12.088A11.922,11.922,0,0,1,15,18.044ZM10,34a1,1,0,0,1,0-2h1v2Zm3,0V28H33v6a10,10,0,0,1-20,0ZM23,46a11.932,11.932,0,0,0,3-.4v.981l-3,3-3-3v-.981A11.932,11.932,0,0,0,23,46Z"/><path d="M19,34h2V33a3,3,0,0,0-6,0v1h2V33a1,1,0,0,1,2,0Z"/><path d="M27,33a1,1,0,0,1,2,0v1h2V33a3,3,0,0,0-6,0v1h2Z"/><path d="M27,38V37H25v1a2,2,0,0,1-4,0V37H19v1a4,4,0,0,0,8,0Z"/><path d="M22.29,54.71a1.155,1.155,0,0,0,.33.21.942.942,0,0,0,.76,0,1.155,1.155,0,0,0,.33-.21A.99.99,0,0,0,24,54a1.05,1.05,0,0,0-.29-.71,1.576,1.576,0,0,0-.15-.12.757.757,0,0,0-.18-.09.636.636,0,0,0-.18-.06.9.9,0,0,0-.4,0,.636.636,0,0,0-.18.06.757.757,0,0,0-.18.09,1.576,1.576,0,0,0-.15.12A1.05,1.05,0,0,0,22,54,.99.99,0,0,0,22.29,54.71Z"/></g></svg>
