<?xml version="1.0"?>
<svg xmlns="http://www.w3.org/2000/svg" viewBox="0 0 64 64" width="512" height="512"><g id="Outline"><path d="M60,23a5.006,5.006,0,0,0-5-5H46.135a14.99,14.99,0,0,0-28.27,0H9a5.006,5.006,0,0,0-5,5V56H2v3a3,3,0,0,0,3,3H59a3,3,0,0,0,3-3V56H60Zm-40.946-1.2a13,13,0,0,1,21.918-8.212,12.98,12.98,0,0,1,1.009,17.721A20.682,20.682,0,0,0,37.005,44H26.988A21.189,21.189,0,0,0,21.95,31.23,12.924,12.924,0,0,1,19.054,21.805ZM37,48H27V46H37Zm-.171,2A3.006,3.006,0,0,1,34,52H30a3.006,3.006,0,0,1-2.829-2ZM6,23a3,3,0,0,1,3-3h8.308a14.764,14.764,0,0,0-.246,1.627A14.92,14.92,0,0,0,20.406,32.5,19.1,19.1,0,0,1,25,44.68V49a5.006,5.006,0,0,0,5,5h4a5.006,5.006,0,0,0,5-5V44.426A18.6,18.6,0,0,1,43.514,32.6,14.976,14.976,0,0,0,47,23a15.149,15.149,0,0,0-.3-3H55a3,3,0,0,1,3,3V56H6ZM60,59a1,1,0,0,1-1,1H5a1,1,0,0,1-1-1V58H60Z"/><rect x="31" y="2" width="2" height="4"/><rect x="21.5" y="4.546" width="2" height="4" transform="translate(-0.258 12.128) rotate(-30.002)"/><rect x="14.545" y="11.5" width="2" height="4" transform="translate(-3.918 20.215) rotate(-60.005)"/><rect x="47.454" y="30.5" width="2" height="4" transform="translate(-3.919 58.211) rotate(-59.998)"/><rect x="11" y="22" width="4" height="2"/><rect x="49" y="22" width="4" height="2"/><rect x="13.546" y="31.5" width="4" height="2" transform="translate(-14.165 12.124) rotate(-29.995)"/><rect x="46.455" y="12.5" width="4" height="2" transform="translate(-0.258 26.037) rotate(-30.002)"/><rect x="39.5" y="5.545" width="4" height="2" transform="translate(15.081 39.212) rotate(-59.998)"/></g></svg>
