<?xml version="1.0"?>
<svg xmlns="http://www.w3.org/2000/svg" viewBox="0 0 64 64" width="512" height="512"><g id="Outline"><path d="M47.414,42l1-1-3.879-3.879a23.027,23.027,0,1,0-7.414,7.414L41,48.414l1-1L55.465,60.878a3.828,3.828,0,0,0,5.414-5.414ZM4,25A21,21,0,1,1,25,46,21.024,21.024,0,0,1,4,25ZM43.387,38.8l2.2,2.2L41,45.586l-2.2-2.2A23.224,23.224,0,0,0,43.387,38.8ZM58.172,60a1.839,1.839,0,0,1-1.293-.536L43.414,46,46,43.414,59.465,56.878A1.829,1.829,0,0,1,58.172,60Z"/><path d="M25,13a3,3,0,0,0-3,3v3h6V16A3,3,0,0,0,25,13Zm1,4H24V16a1,1,0,0,1,2,0Z"/><path d="M34.889,27.705A10.043,10.043,0,0,1,33.278,25L32,21.807v-3.6A14.445,14.445,0,0,0,25.555,6.168L25,5.8l-.555.37A14.445,14.445,0,0,0,18,18.211v3.6L16.722,25a10.033,10.033,0,0,1-1.611,2.7l-1.319,1.582A12.069,12.069,0,0,0,11,37v1h7v4h6V38h2v4h6V38h7V37a12.069,12.069,0,0,0-2.792-7.713ZM13.05,36a10.078,10.078,0,0,1,2.279-5.433l1.319-1.582a12.109,12.109,0,0,0,1.352-2V36ZM22,40H20V38h2Zm-2-4V18.211a12.447,12.447,0,0,1,5-9.987,12.447,12.447,0,0,1,5,9.987V36Zm10,4H28V38h2Zm2-4V26.985a12.109,12.109,0,0,0,1.352,2l1.319,1.582A10.078,10.078,0,0,1,36.95,36Z"/></g></svg>
